<svg xmlns="http://www.w3.org/2000/svg" xmlns:xlink="http://www.w3.org/1999/xlink" width="500" zoomAndPan="magnify" viewBox="0 0 375 93.749996" height="125" preserveAspectRatio="xMidYMid meet" version="1.0"><defs><g/><clipPath id="b84327a7c0"><path d="M 0.5 4 L 374.5 4 L 374.5 89 L 0.5 89 Z M 0.5 4 " clip-rule="nonzero"/></clipPath><clipPath id="ae8b0b0eea"><path d="M 365 59 L 374.5 59 L 374.5 68 L 365 68 Z M 365 59 " clip-rule="nonzero"/></clipPath><clipPath id="0c6256991e"><rect x="0" width="375" y="0" height="85"/></clipPath></defs><g clip-path="url(#b84327a7c0)"><g transform="matrix(1, 0, 0, 1, 0.000000000000000167, 4)"><g clip-path="url(#0c6256991e)"><g fill="#00bf63" fill-opacity="1"><g transform="translate(0.526082, 66.426933)"><g><path d="M 11.953125 -37.296875 L 11.953125 -23.546875 L 34.046875 -23.546875 C 35.242188 -23.546875 36.140625 -23.1875 36.734375 -22.46875 C 37.335938 -21.757812 37.640625 -20.992188 37.640625 -20.171875 C 37.640625 -19.335938 37.335938 -18.585938 36.734375 -17.921875 C 36.140625 -17.253906 35.242188 -16.921875 34.046875 -16.921875 L 11.953125 -16.921875 L 11.953125 -3.734375 C 11.953125 -2.535156 11.535156 -1.613281 10.703125 -0.96875 C 9.878906 -0.320312 8.984375 0 8.015625 0 C 6.992188 0 6.066406 -0.320312 5.234375 -0.96875 C 4.410156 -1.613281 4 -2.507812 4 -3.65625 L 4 -39.921875 C 4 -41.023438 4.445312 -41.976562 5.34375 -42.78125 C 6.25 -43.59375 7.300781 -44 8.5 -44 L 35.296875 -44 C 36.535156 -44 37.453125 -43.648438 38.046875 -42.953125 C 38.648438 -42.265625 38.953125 -41.484375 38.953125 -40.609375 C 38.953125 -39.773438 38.648438 -39.015625 38.046875 -38.328125 C 37.453125 -37.640625 36.535156 -37.296875 35.296875 -37.296875 Z M 11.953125 -37.296875 "/></g></g></g><g fill="#00bf63" fill-opacity="1"><g transform="translate(43.134045, 66.426933)"><g><path d="M 10.296875 -3.453125 C 10.296875 -2.535156 9.914062 -1.726562 9.15625 -1.03125 C 8.394531 -0.34375 7.460938 0 6.359375 0 C 5.203125 0 4.253906 -0.34375 3.515625 -1.03125 C 2.785156 -1.726562 2.421875 -2.535156 2.421875 -3.453125 L 2.421875 -41.234375 C 2.421875 -42.148438 2.785156 -42.953125 3.515625 -43.640625 C 4.253906 -44.335938 5.203125 -44.6875 6.359375 -44.6875 C 7.460938 -44.6875 8.394531 -44.335938 9.15625 -43.640625 C 9.914062 -42.953125 10.296875 -42.148438 10.296875 -41.234375 Z M 10.296875 -3.453125 "/></g></g></g><g fill="#00bf63" fill-opacity="1"><g transform="translate(57.083498, 66.426933)"><g><path d="M 19.75 -35.84375 C 23.4375 -35.84375 26.660156 -35.070312 29.421875 -33.53125 C 32.179688 -31.988281 34.320312 -29.832031 35.84375 -27.0625 C 37.363281 -24.300781 38.125 -21.082031 38.125 -17.40625 C 38.070312 -13.8125 37.273438 -10.65625 35.734375 -7.9375 C 34.191406 -5.226562 32.050781 -3.113281 29.3125 -1.59375 C 26.570312 -0.0703125 23.382812 0.6875 19.75 0.6875 C 16.15625 0.6875 12.976562 -0.0703125 10.21875 -1.59375 C 7.457031 -3.113281 5.304688 -5.226562 3.765625 -7.9375 C 2.222656 -10.65625 1.425781 -13.8125 1.375 -17.40625 C 1.375 -21.082031 2.144531 -24.300781 3.6875 -27.0625 C 5.238281 -29.832031 7.394531 -31.988281 10.15625 -33.53125 C 12.914062 -35.070312 16.113281 -35.84375 19.75 -35.84375 Z M 19.75 -6.21875 C 22.882812 -6.21875 25.382812 -7.253906 27.25 -9.328125 C 29.113281 -11.398438 30.046875 -14.09375 30.046875 -17.40625 C 30.046875 -20.8125 29.113281 -23.582031 27.25 -25.71875 C 25.382812 -27.863281 22.882812 -28.9375 19.75 -28.9375 C 16.664062 -28.9375 14.179688 -27.863281 12.296875 -25.71875 C 10.410156 -23.582031 9.46875 -20.8125 9.46875 -17.40625 C 9.46875 -14.09375 10.410156 -11.398438 12.296875 -9.328125 C 14.179688 -7.253906 16.664062 -6.21875 19.75 -6.21875 Z M 19.75 -6.21875 "/></g></g></g><g fill="#00bf63" fill-opacity="1"><g transform="translate(96.583723, 66.426933)"><g><path d="M 1.59375 -29.96875 C 1.175781 -30.9375 1.140625 -31.8125 1.484375 -32.59375 C 1.828125 -33.375 2.367188 -33.992188 3.109375 -34.453125 C 3.847656 -34.921875 4.609375 -35.15625 5.390625 -35.15625 C 6.171875 -35.15625 6.90625 -34.910156 7.59375 -34.421875 C 8.28125 -33.941406 8.742188 -33.398438 8.984375 -32.796875 L 17.953125 -12.296875 L 26.59375 -30.046875 C 26.914062 -30.828125 27.394531 -31.410156 28.03125 -31.796875 C 28.675781 -32.191406 29.394531 -32.390625 30.1875 -32.390625 C 31.882812 -32.390625 33.101562 -31.628906 33.84375 -30.109375 L 42.546875 -12.15625 L 51.453125 -32.671875 C 52.191406 -34.328125 53.4375 -35.15625 55.1875 -35.15625 C 56.375 -35.15625 57.394531 -34.660156 58.25 -33.671875 C 59.101562 -32.679688 59.234375 -31.472656 58.640625 -30.046875 L 46.40625 -1.3125 C 45.90625 0.0195312 44.734375 0.6875 42.890625 0.6875 C 42.109375 0.6875 41.378906 0.535156 40.703125 0.234375 C 40.035156 -0.0546875 39.519531 -0.550781 39.15625 -1.25 L 30.3125 -19.953125 L 21.265625 -1.3125 C 20.617188 0.0195312 19.378906 0.6875 17.546875 0.6875 C 16.765625 0.6875 16.070312 0.535156 15.46875 0.234375 C 14.875 -0.0546875 14.390625 -0.59375 14.015625 -1.375 Z M 1.59375 -29.96875 "/></g></g></g><g fill="#ffffff" fill-opacity="1"><g transform="translate(159.35663, 66.426933)"><g><path d="M 8.078125 0 C 6.609375 0 5.550781 -0.320312 4.90625 -0.96875 C 4.257812 -1.613281 3.9375 -2.535156 3.9375 -3.734375 L 3.9375 -40.46875 C 3.9375 -41.664062 4.359375 -42.550781 5.203125 -43.125 C 6.054688 -43.707031 6.992188 -44 8.015625 -44 C 8.984375 -44 9.890625 -43.707031 10.734375 -43.125 C 11.585938 -42.550781 12.015625 -41.664062 12.015625 -40.46875 L 12.015625 -6.90625 L 34.671875 -6.90625 C 36.003906 -6.90625 37.023438 -6.535156 37.734375 -5.796875 C 38.453125 -5.066406 38.8125 -4.285156 38.8125 -3.453125 C 38.8125 -2.578125 38.453125 -1.78125 37.734375 -1.0625 C 37.023438 -0.351562 36.003906 0 34.671875 0 Z M 8.078125 0 "/></g></g></g><g fill="#ffffff" fill-opacity="1"><g transform="translate(197.751964, 66.426933)"><g><path d="M 32.109375 -35.15625 C 33.304688 -35.15625 34.257812 -34.820312 34.96875 -34.15625 C 35.6875 -33.488281 36.046875 -32.625 36.046875 -31.5625 L 36.046875 -3.59375 C 36.046875 -2.53125 35.6875 -1.664062 34.96875 -1 C 34.257812 -0.332031 33.304688 0 32.109375 0 C 30.960938 0 30.066406 -0.265625 29.421875 -0.796875 C 28.773438 -1.328125 28.382812 -2.03125 28.25 -2.90625 C 26.675781 -1.65625 24.921875 -0.742188 22.984375 -0.171875 C 21.054688 0.398438 19.21875 0.6875 17.46875 0.6875 C 14.15625 0.6875 11.289062 -0.0703125 8.875 -1.59375 C 6.457031 -3.113281 4.601562 -5.253906 3.3125 -8.015625 C 2.019531 -10.773438 1.375 -14 1.375 -17.6875 C 1.375 -21.269531 2.085938 -24.421875 3.515625 -27.140625 C 4.941406 -29.859375 6.929688 -31.988281 9.484375 -33.53125 C 12.046875 -35.070312 15.007812 -35.84375 18.375 -35.84375 C 19.84375 -35.84375 21.472656 -35.566406 23.265625 -35.015625 C 25.066406 -34.460938 26.726562 -33.585938 28.25 -32.390625 C 28.425781 -33.222656 28.835938 -33.890625 29.484375 -34.390625 C 30.128906 -34.898438 31.003906 -35.15625 32.109375 -35.15625 Z M 18.296875 -6.28125 C 20.328125 -6.28125 22.285156 -6.726562 24.171875 -7.625 C 26.054688 -8.53125 27.390625 -9.859375 28.171875 -11.609375 L 28.171875 -23.546875 C 27.296875 -25.253906 25.984375 -26.566406 24.234375 -27.484375 C 22.484375 -28.410156 20.710938 -28.875 18.921875 -28.875 C 16.023438 -28.875 13.6875 -27.8125 11.90625 -25.6875 C 10.132812 -23.570312 9.25 -20.878906 9.25 -17.609375 C 9.25 -14.203125 10.078125 -11.460938 11.734375 -9.390625 C 13.398438 -7.316406 15.585938 -6.28125 18.296875 -6.28125 Z M 18.296875 -6.28125 "/></g></g></g><g fill="#ffffff" fill-opacity="1"><g transform="translate(240.29087, 66.426933)"><g><path d="M 23.28125 -35.84375 C 26.5 -35.84375 29.234375 -35.140625 31.484375 -33.734375 C 33.742188 -32.328125 35.472656 -30.378906 36.671875 -27.890625 C 37.867188 -25.410156 38.46875 -22.515625 38.46875 -19.203125 L 38.46875 -3.59375 C 38.46875 -2.53125 38.117188 -1.664062 37.421875 -1 C 36.734375 -0.332031 35.769531 0 34.53125 0 C 33.375 0 32.425781 -0.332031 31.6875 -1 C 30.957031 -1.664062 30.59375 -2.53125 30.59375 -3.59375 L 30.59375 -19.34375 C 30.59375 -22.195312 29.910156 -24.507812 28.546875 -26.28125 C 27.191406 -28.050781 25.039062 -28.9375 22.09375 -28.9375 C 21.21875 -28.9375 20.171875 -28.691406 18.953125 -28.203125 C 17.734375 -27.722656 16.535156 -27 15.359375 -26.03125 C 14.191406 -25.070312 13.226562 -23.851562 12.46875 -22.375 C 11.707031 -20.90625 11.328125 -19.15625 11.328125 -17.125 L 11.328125 -3.515625 C 11.328125 -1.171875 10.0625 0 7.53125 0 C 6.332031 0 5.351562 -0.304688 4.59375 -0.921875 C 3.832031 -1.546875 3.453125 -2.410156 3.453125 -3.515625 L 3.453125 -31.625 C 3.453125 -32.78125 3.851562 -33.65625 4.65625 -34.25 C 5.46875 -34.851562 6.378906 -35.15625 7.390625 -35.15625 C 8.359375 -35.15625 9.253906 -34.851562 10.078125 -34.25 C 10.910156 -33.65625 11.328125 -32.828125 11.328125 -31.765625 L 11.328125 -31.28125 C 13.304688 -33.125 15.351562 -34.34375 17.46875 -34.9375 C 19.59375 -35.539062 21.53125 -35.84375 23.28125 -35.84375 Z M 23.28125 -35.84375 "/></g></g></g><g fill="#ffffff" fill-opacity="1"><g transform="translate(284.832424, 66.426933)"><g><path d="M 27.28125 -25.6875 C 26.21875 -26.9375 24.972656 -27.8125 23.546875 -28.3125 C 22.117188 -28.820312 20.71875 -29.078125 19.34375 -29.078125 C 16.300781 -29.078125 13.859375 -28.03125 12.015625 -25.9375 C 10.171875 -23.84375 9.25 -21.019531 9.25 -17.46875 C 9.25 -14.0625 10.203125 -11.320312 12.109375 -9.25 C 14.023438 -7.175781 16.523438 -6.140625 19.609375 -6.140625 C 20.992188 -6.140625 22.398438 -6.378906 23.828125 -6.859375 C 25.253906 -7.347656 26.519531 -8.144531 27.625 -9.25 C 28.632812 -10.269531 29.632812 -10.800781 30.625 -10.84375 C 31.613281 -10.882812 32.429688 -10.601562 33.078125 -10 C 33.722656 -9.40625 34.078125 -8.632812 34.140625 -7.6875 C 34.210938 -6.75 33.8125 -5.796875 32.9375 -4.828125 C 31.144531 -2.847656 29.085938 -1.429688 26.765625 -0.578125 C 24.441406 0.265625 22.035156 0.6875 19.546875 0.6875 C 15.910156 0.6875 12.722656 -0.0703125 9.984375 -1.59375 C 7.242188 -3.113281 5.113281 -5.226562 3.59375 -7.9375 C 2.070312 -10.65625 1.3125 -13.8125 1.3125 -17.40625 C 1.3125 -21.132812 2.054688 -24.378906 3.546875 -27.140625 C 5.046875 -29.898438 7.15625 -32.039062 9.875 -33.5625 C 12.59375 -35.082031 15.75 -35.84375 19.34375 -35.84375 C 21.875 -35.84375 24.234375 -35.453125 26.421875 -34.671875 C 28.609375 -33.890625 30.617188 -32.414062 32.453125 -30.25 C 33.285156 -29.28125 33.644531 -28.332031 33.53125 -27.40625 C 33.414062 -26.488281 33.007812 -25.726562 32.3125 -25.125 C 31.625 -24.53125 30.804688 -24.242188 29.859375 -24.265625 C 28.921875 -24.296875 28.0625 -24.769531 27.28125 -25.6875 Z M 27.28125 -25.6875 "/></g></g></g><g fill="#ffffff" fill-opacity="1"><g transform="translate(321.984914, 66.426933)"><g><path d="M 19.75 -6.140625 C 21.082031 -6.140625 22.394531 -6.320312 23.6875 -6.6875 C 24.976562 -7.0625 26.175781 -7.6875 27.28125 -8.5625 C 28.34375 -9.53125 29.378906 -9.976562 30.390625 -9.90625 C 31.398438 -9.84375 32.238281 -9.472656 32.90625 -8.796875 C 33.570312 -8.128906 33.90625 -7.300781 33.90625 -6.3125 C 33.90625 -5.320312 33.421875 -4.367188 32.453125 -3.453125 C 30.847656 -1.890625 28.9375 -0.796875 26.71875 -0.171875 C 24.507812 0.453125 22.253906 0.738281 19.953125 0.6875 C 16.367188 0.6875 13.207031 -0.046875 10.46875 -1.515625 C 7.726562 -2.992188 5.582031 -5.046875 4.03125 -7.671875 C 2.488281 -10.296875 1.71875 -13.332031 1.71875 -16.78125 C 1.71875 -20.550781 2.453125 -23.863281 3.921875 -26.71875 C 5.398438 -29.582031 7.488281 -31.816406 10.1875 -33.421875 C 12.882812 -35.035156 16.070312 -35.84375 19.75 -35.84375 C 23.4375 -35.84375 26.566406 -35.09375 29.140625 -33.59375 C 31.722656 -32.101562 33.691406 -30.007812 35.046875 -27.3125 C 36.410156 -24.625 37.09375 -21.484375 37.09375 -17.890625 C 37.09375 -16.734375 36.859375 -15.753906 36.390625 -14.953125 C 35.929688 -14.148438 34.710938 -13.75 32.734375 -13.75 L 9.734375 -13.75 C 10.378906 -11.488281 11.597656 -9.65625 13.390625 -8.25 C 15.191406 -6.84375 17.3125 -6.140625 19.75 -6.140625 Z M 19.828125 -29 C 17.148438 -29 14.910156 -28.160156 13.109375 -26.484375 C 11.316406 -24.804688 10.171875 -22.609375 9.671875 -19.890625 L 29.765625 -19.890625 C 29.535156 -22.609375 28.632812 -24.804688 27.0625 -26.484375 C 25.5 -28.160156 23.085938 -29 19.828125 -29 Z M 19.828125 -29 "/></g></g></g><g clip-path="url(#ae8b0b0eea)"><g fill="#ffffff" fill-opacity="1"><g transform="translate(364.730992, 66.426933)"><g><path d="M 4.96875 -7.390625 C 6.300781 -7.390625 7.367188 -7.007812 8.171875 -6.25 C 8.984375 -5.488281 9.390625 -4.507812 9.390625 -3.3125 C 9.390625 -2.164062 8.984375 -1.210938 8.171875 -0.453125 C 7.367188 0.304688 6.300781 0.6875 4.96875 0.6875 C 3.675781 0.6875 2.59375 0.304688 1.71875 -0.453125 C 0.851562 -1.210938 0.421875 -2.164062 0.421875 -3.3125 C 0.421875 -4.507812 0.851562 -5.488281 1.71875 -6.25 C 2.59375 -7.007812 3.675781 -7.390625 4.96875 -7.390625 Z M 4.96875 -7.390625 "/></g></g></g></g></g></g></g></svg>