<?xml version="1.0" standalone="no"?>
<!DOCTYPE svg PUBLIC "-//W3C//DTD SVG 20010904//EN"
 "http://www.w3.org/TR/2001/REC-SVG-20010904/DTD/svg10.dtd">
<svg version="1.0" xmlns="http://www.w3.org/2000/svg"
 width="500.000000pt" height="131.000000pt" viewBox="0 0 500.000000 131.000000"
 preserveAspectRatio="xMidYMid meet">
<metadata>
Created by potrace 1.16, written by Peter Selinger 2001-2019
</metadata>
<g transform="translate(0.000000,131.000000) scale(0.100000,-0.100000)"
fill="#000000" stroke="none">
<path d="M2244 907 c-2 -7 -3 -118 -2 -247 l3 -235 188 -3 c167 -2 188 -1 194
14 13 35 -23 44 -174 44 l-143 0 0 204 c0 112 -3 211 -6 220 -7 19 -53 21 -60
3z"/>
<path d="M2776 816 c-46 -17 -89 -57 -111 -101 -21 -45 -19 -140 4 -190 48
-104 172 -146 268 -90 42 25 43 26 43 5 0 -17 5 -21 28 -18 l27 3 0 195 0 195
-23 3 c-17 3 -25 -2 -29 -17 l-5 -21 -31 22 c-38 27 -118 34 -171 14z m154
-75 c52 -37 64 -164 22 -221 -24 -32 -89 -55 -127 -46 -46 12 -101 74 -110
124 -9 57 25 128 75 154 41 22 101 18 140 -11z"/>
<path d="M3284 811 c-23 -10 -45 -25 -50 -32 -6 -10 -10 -7 -14 11 -4 18 -13
25 -30 25 l-25 0 -3 -197 -2 -198 30 0 30 0 0 103 c0 127 11 167 55 206 44 38
90 47 138 28 56 -24 67 -57 67 -194 0 -65 4 -124 9 -131 4 -8 19 -12 32 -10
l24 3 0 146 c0 145 0 146 -29 183 -54 71 -150 94 -232 57z"/>
<path d="M3770 815 c-149 -67 -171 -279 -38 -372 73 -50 200 -40 257 21 48 51
1 89 -50 41 -37 -36 -109 -44 -158 -18 -109 57 -86 251 32 278 42 10 92 -2
126 -30 33 -28 64 -24 59 8 -2 11 -20 34 -41 50 -46 38 -130 47 -187 22z"/>
<path d="M4207 820 c-82 -25 -137 -105 -137 -200 0 -128 84 -210 213 -210 66
0 140 35 145 68 5 32 -21 37 -71 13 -75 -37 -150 -23 -196 35 -41 52 -35 54
137 54 110 0 162 4 170 12 18 18 14 77 -7 123 -41 91 -150 136 -254 105z m133
-69 c37 -19 64 -52 75 -88 l6 -23 -144 0 -145 0 5 23 c22 88 122 132 203 88z"/>
</g>
</svg>
